# xmcd
#
# Track frame offsets:
#	150
#	15676
#	30516
#	45503
#	57224
#	69578
#	84691
#	97169
#	109176
#	120815
#	133743
#
# Disc length: 1991 seconds
#
# Revision: 2
# Processed by: cddbd v1.5.1PL2 Copyright (c) Steve Scherf et al.
# Submitted via: EasyCDDAExtractor 9.0.0.1
#
DISCID=8c07c50b
DTITLE=Edwin Starr - Motown Legends - War
DYEAR=1995
DGENRE=Blues
TTITLE0=War
TTITLE1=You've Made Me So Very Happy
TTITLE2=Soul Master
TTITLE3=Oh How Happy
TTITLE4=Way Over There
TTITLE5=Twenty-Five Miles
TTITLE6=Gonna Keep On Tryin' Till I Win Your Love
TTITLE7=Ooo Baby Baby
TTITLE8=You Beat Me To The Punch
TTITLE9=At Lat (I Found A Love)
TTITLE10=Cloud Nine
EXTD=
EXTT0=
EXTT1=
EXTT2=
EXTT3=
EXTT4=
EXTT5=
EXTT6=
EXTT7=
EXTT8=
EXTT9=
EXTT10=
PLAYORDER=
